<ttFont>
    <TTGlyph name=".notdef" xMin="102" yMin="0" xMax="922" yMax="1462">
      <contour>
        <pt x="102" y="0" on="1"/>
        <pt x="102" y="1462" on="1"/>
        <pt x="922" y="1462" on="1"/>
        <pt x="922" y="0" on="1"/>
      </contour>
      <contour>
        <pt x="201" y="98" on="1"/>
        <pt x="823" y="98" on="1"/>
        <pt x="823" y="1364" on="1"/>
        <pt x="201" y="1364" on="1"/>
      </contour>
    </TTGlyph>
    <TTGlyph name="glyph00004" xMin="20" yMin="0" xMax="1327" yMax="1468">
      <contour>
        <pt x="1136" y="0" on="1"/>
        <pt x="928" y="557" on="1"/>
        <pt x="255" y="130" on="1"/>
        <pt x="206" y="0" on="1"/>
        <pt x="20" y="0" on="1"/>
        <pt x="591" y="1468" on="1"/>
        <pt x="757" y="1468" on="1"/>
        <pt x="1327" y="0" on="1"/>
      </contour>
      <contour>
        <pt x="671" y="1278" on="1"/>
        <pt x="636" y="1139" on="0"/>
        <pt x="608" y="1059" on="1"/>
        <pt x="351" y="383" on="1"/>
        <pt x="870" y="712" on="1"/>
        <pt x="741" y="1059" on="1"/>
      </contour>
    </TTGlyph>
    <TTGlyph name="glyph00005" xMin="110" yMin="0" xMax="1132" yMax="1462">
      <contour>
        <pt x="1132" y="0" on="1"/>
        <pt x="618" y="0" on="1"/>
        <pt x="379" y="0" on="0"/>
        <pt x="110" y="220" on="0"/>
        <pt x="110" y="416" on="1"/>
        <pt x="110" y="560" on="0"/>
        <pt x="269" y="737" on="0"/>
        <pt x="438" y="766" on="1"/>
        <pt x="438" y="776" on="1"/>
        <pt x="302" y="801" on="0"/>
        <pt x="160" y="970" on="0"/>
        <pt x="160" y="1100" on="1"/>
        <pt x="160" y="1287" on="0"/>
        <pt x="420" y="1462" on="0"/>
        <pt x="715" y="1462" on="1"/>
        <pt x="1132" y="1462" on="1"/>
      </contour>
      <contour>
        <pt x="948" y="1304" on="1"/>
        <pt x="706" y="1304" on="1"/>
        <pt x="521" y="1304" on="0"/>
        <pt x="350" y="1199" on="0"/>
        <pt x="350" y="1079" on="1"/>
        <pt x="350" y="951" on="0"/>
        <pt x="504" y="841" on="0"/>
        <pt x="678" y="841" on="1"/>
        <pt x="948" y="841" on="1"/>
      </contour>
      <contour>
        <pt x="667" y="685" on="1"/>
        <pt x="483" y="685" on="0"/>
        <pt x="307" y="559" on="0"/>
        <pt x="307" y="430" on="1"/>
        <pt x="307" y="292" on="0"/>
        <pt x="478" y="158" on="0"/>
        <pt x="653" y="158" on="1"/>
        <pt x="948" y="158" on="1"/>
        <pt x="948" y="685" on="1"/>
      </contour>
    </TTGlyph>
    <TTGlyph name="glyph00006" xMin="63" yMin="-20" xMax="1169" yMax="1483">
      <contour>
        <pt x="63" y="1397" on="1"/>
        <pt x="235" y="1483" on="0"/>
        <pt x="467" y="1483" on="1"/>
        <pt x="682" y="1483" on="0"/>
        <pt x="1001" y="1300" on="0"/>
        <pt x="1169" y="960" on="0"/>
        <pt x="1169" y="733" on="1"/>
        <pt x="1169" y="373" on="0"/>
        <pt x="820" y="-20" on="0"/>
        <pt x="497" y="-20" on="1"/>
        <pt x="386" y="-20" on="0"/>
        <pt x="213" y="5" on="0"/>
        <pt x="120" y="39" on="1"/>
        <pt x="120" y="199" on="1"/>
        <pt x="315" y="141" on="0"/>
        <pt x="471" y="141" on="1"/>
        <pt x="712" y="141" on="0"/>
        <pt x="975" y="447" on="0"/>
        <pt x="975" y="731" on="1"/>
        <pt x="975" y="1005" on="0"/>
        <pt x="705" y="1321" on="0"/>
        <pt x="469" y="1321" on="1"/>
        <pt x="312" y="1321" on="0"/>
        <pt x="137" y="1241" on="1"/>
      </contour>
    </TTGlyph>
    <TTGlyph name="glyph00007" xMin="60" yMin="-20" xMax="919" yMax="1462">
      <contour>
        <pt x="919" y="1462" on="1"/>
        <pt x="919" y="0" on="1"/>
        <pt x="735" y="0" on="1"/>
        <pt x="735" y="578" on="1"/>
        <pt x="179" y="-20" on="1"/>
        <pt x="60" y="90" on="1"/>
        <pt x="735" y="816" on="1"/>
        <pt x="735" y="1462" on="1"/>
      </contour>
    </TTGlyph>
    <TTGlyph name="glyph00008" xMin="60" yMin="0" xMax="984" yMax="1462">
      <contour>
        <pt x="800" y="0" on="1"/>
        <pt x="60" y="452" on="1"/>
        <pt x="144" y="595" on="1"/>
        <pt x="800" y="194" on="1"/>
        <pt x="800" y="581" on="1"/>
        <pt x="210" y="942" on="1"/>
        <pt x="294" y="1085" on="1"/>
        <pt x="800" y="776" on="1"/>
        <pt x="800" y="1462" on="1"/>
        <pt x="984" y="1462" on="1"/>
        <pt x="984" y="0" on="1"/>
      </contour>
    </TTGlyph>
    <TTGlyph name="glyph00009" xMin="60" yMin="0" xMax="984" yMax="1462">
      <contour>
        <pt x="984" y="1462" on="1"/>
        <pt x="984" y="0" on="1"/>
        <pt x="800" y="0" on="1"/>
        <pt x="800" y="686" on="1"/>
        <pt x="294" y="377" on="1"/>
        <pt x="210" y="520" on="1"/>
        <pt x="800" y="881" on="1"/>
        <pt x="800" y="1267" on="1"/>
        <pt x="144" y="867" on="1"/>
        <pt x="60" y="1010" on="1"/>
        <pt x="800" y="1462" on="1"/>
      </contour>
    </TTGlyph>
    <TTGlyph name="glyph00010" xMin="250" yMin="0" xMax="434" yMax="1462">
      <contour>
        <pt x="434" y="1462" on="1"/>
        <pt x="434" y="0" on="1"/>
        <pt x="250" y="0" on="1"/>
        <pt x="250" y="1462" on="1"/>
      </contour>
    </TTGlyph>
    <TTGlyph name="glyph00011" xMin="125" yMin="0" xMax="1096" yMax="1462">
      <contour>
        <pt x="1096" y="0" on="1"/>
        <pt x="889" y="0" on="1"/>
        <pt x="520" y="0" on="0"/>
        <pt x="125" y="382" on="0"/>
        <pt x="125" y="745" on="1"/>
        <pt x="125" y="1087" on="0"/>
        <pt x="504" y="1462" on="0"/>
        <pt x="846" y="1462" on="1"/>
        <pt x="1096" y="1462" on="1"/>
      </contour>
      <contour>
        <pt x="872" y="1305" on="1"/>
        <pt x="596" y="1305" on="0"/>
        <pt x="319" y="1019" on="0"/>
        <pt x="319" y="739" on="1"/>
        <pt x="319" y="158" on="0"/>
        <pt x="903" y="158" on="1"/>
        <pt x="912" y="158" on="1"/>
        <pt x="912" y="1305" on="1"/>
      </contour>
    </TTGlyph>
    <TTGlyph name="glyph00012" xMin="60" yMin="0" xMax="865" yMax="1462">
      <contour>
        <pt x="681" y="0" on="1"/>
        <pt x="681" y="594" on="1"/>
        <pt x="159" y="165" on="1"/>
        <pt x="60" y="298" on="1"/>
        <pt x="611" y="749" on="1"/>
        <pt x="60" y="1201" on="1"/>
        <pt x="159" y="1334" on="1"/>
        <pt x="681" y="904" on="1"/>
        <pt x="681" y="1462" on="1"/>
        <pt x="865" y="1462" on="1"/>
        <pt x="865" y="0" on="1"/>
      </contour>
    </TTGlyph>
    <TTGlyph name="glyph00013" xMin="60" yMin="0" xMax="984" yMax="1462">
      <contour>
        <pt x="984" y="1462" on="1"/>
        <pt x="984" y="0" on="1"/>
        <pt x="800" y="0" on="1"/>
        <pt x="800" y="1267" on="1"/>
        <pt x="144" y="867" on="1"/>
        <pt x="60" y="1010" on="1"/>
        <pt x="800" y="1462" on="1"/>
      </contour>
    </TTGlyph>
    <TTGlyph name="glyph00014" xMin="60" yMin="0" xMax="1336" yMax="1462">
      <contour>
        <pt x="1336" y="0" on="1"/>
        <pt x="1152" y="0" on="1"/>
        <pt x="1152" y="1192" on="1"/>
        <pt x="893" y="859" on="1"/>
        <pt x="725" y="859" on="1"/>
        <pt x="470" y="1182" on="1"/>
        <pt x="187" y="819" on="1"/>
        <pt x="60" y="925" on="1"/>
        <pt x="407" y="1370" on="1"/>
        <pt x="538" y="1370" on="1"/>
        <pt x="808" y="1020" on="1"/>
        <pt x="1152" y="1462" on="1"/>
        <pt x="1336" y="1462" on="1"/>
      </contour>
    </TTGlyph>
    <TTGlyph name="glyph00015" xMin="60" yMin="0" xMax="1189" yMax="1482">
      <contour>
        <pt x="1189" y="0" on="1"/>
        <pt x="1005" y="0" on="1"/>
        <pt x="1005" y="1229" on="1"/>
        <pt x="636" y="845" on="1"/>
        <pt x="507" y="845" on="1"/>
        <pt x="506" y="848" on="1"/>
        <pt x="503" y="845" on="1"/>
        <pt x="60" y="1370" on="1"/>
        <pt x="188" y="1482" on="1"/>
        <pt x="576" y="1016" on="1"/>
        <pt x="1005" y="1462" on="1"/>
        <pt x="1189" y="1462" on="1"/>
      </contour>
    </TTGlyph>
    <TTGlyph name="glyph00016" xMin="125" yMin="195" xMax="1323" yMax="1305">
      <contour>
        <pt x="1323" y="750" on="1"/>
        <pt x="1323" y="492" on="0"/>
        <pt x="1001" y="195" on="0"/>
        <pt x="722" y="195" on="1"/>
        <pt x="539" y="195" on="0"/>
        <pt x="269" y="331" on="0"/>
        <pt x="125" y="584" on="0"/>
        <pt x="125" y="751" on="1"/>
        <pt x="125" y="916" on="0"/>
        <pt x="269" y="1169" on="0"/>
        <pt x="541" y="1305" on="0"/>
        <pt x="725" y="1305" on="1"/>
        <pt x="1004" y="1305" on="0"/>
        <pt x="1323" y="1008" on="0"/>
      </contour>
      <contour>
        <pt x="319" y="750" on="1"/>
        <pt x="319" y="557" on="0"/>
        <pt x="526" y="357" on="0"/>
        <pt x="722" y="357" on="1"/>
        <pt x="918" y="357" on="0"/>
        <pt x="1129" y="555" on="0"/>
        <pt x="1129" y="750" on="1"/>
        <pt x="1129" y="940" on="0"/>
        <pt x="925" y="1143" on="0"/>
        <pt x="725" y="1143" on="1"/>
        <pt x="525" y="1143" on="0"/>
        <pt x="319" y="941" on="0"/>
      </contour>
    </TTGlyph>
    <TTGlyph name="glyph00017" xMin="125" yMin="0" xMax="1064" yMax="1462">
      <contour>
        <pt x="1064" y="1462" on="1"/>
        <pt x="1064" y="0" on="1"/>
        <pt x="880" y="0" on="1"/>
        <pt x="880" y="569" on="1"/>
        <pt x="712" y="569" on="1"/>
        <pt x="431" y="569" on="0"/>
        <pt x="125" y="801" on="0"/>
        <pt x="125" y="1022" on="1"/>
        <pt x="125" y="1239" on="0"/>
        <pt x="406" y="1462" on="0"/>
        <pt x="677" y="1462" on="1"/>
      </contour>
      <contour>
        <pt x="880" y="1304" on="1"/>
        <pt x="694" y="1304" on="1"/>
        <pt x="500" y="1304" on="0"/>
        <pt x="319" y="1165" on="0"/>
        <pt x="319" y="1024" on="1"/>
        <pt x="319" y="869" on="0"/>
        <pt x="515" y="727" on="0"/>
        <pt x="733" y="727" on="1"/>
        <pt x="880" y="727" on="1"/>
      </contour>
    </TTGlyph>
    <TTGlyph name="glyph00018" xMin="30" yMin="-40" xMax="1066" yMax="1483">
      <contour>
        <pt x="30" y="1331" on="1"/>
        <pt x="120" y="1402" on="0"/>
        <pt x="355" y="1483" on="0"/>
        <pt x="487" y="1483" on="1"/>
        <pt x="707" y="1483" on="0"/>
        <pt x="949" y="1295" on="0"/>
        <pt x="949" y="1120" on="1"/>
        <pt x="949" y="939" on="0"/>
        <pt x="807" y="811" on="1"/>
        <pt x="925" y="762" on="0"/>
        <pt x="925" y="606" on="1"/>
        <pt x="925" y="555" on="0"/>
        <pt x="906" y="463" on="1"/>
        <pt x="887" y="371" on="0"/>
        <pt x="887" y="336" on="1"/>
        <pt x="887" y="281" on="0"/>
        <pt x="968" y="173" on="0"/>
        <pt x="1066" y="94" on="1"/>
        <pt x="953" y="-40" on="1"/>
        <pt x="814" y="61" on="0"/>
        <pt x="693" y="229" on="0"/>
        <pt x="693" y="321" on="1"/>
        <pt x="693" y="372" on="0"/>
        <pt x="712" y="448" on="1"/>
        <pt x="731" y="524" on="0"/>
        <pt x="731" y="570" on="1"/>
        <pt x="731" y="673" on="0"/>
        <pt x="636" y="673" on="1"/>
        <pt x="598" y="673" on="0"/>
        <pt x="539" y="657" on="1"/>
        <pt x="511" y="813" on="1"/>
        <pt x="632" y="845" on="0"/>
        <pt x="755" y="996" on="0"/>
        <pt x="755" y="1098" on="1"/>
        <pt x="755" y="1203" on="0"/>
        <pt x="614" y="1321" on="0"/>
        <pt x="489" y="1321" on="1"/>
        <pt x="391" y="1321" on="0"/>
        <pt x="223" y="1265" on="0"/>
        <pt x="117" y="1194" on="1"/>
      </contour>
    </TTGlyph>
    <TTGlyph name="glyph00019" xMin="30" yMin="0" xMax="1126" yMax="1462">
      <contour>
        <pt x="671" y="0" on="1"/>
        <pt x="487" y="0" on="1"/>
        <pt x="487" y="1304" on="1"/>
        <pt x="30" y="1304" on="1"/>
        <pt x="30" y="1462" on="1"/>
        <pt x="1126" y="1462" on="1"/>
        <pt x="1126" y="1304" on="1"/>
        <pt x="671" y="1304" on="1"/>
      </contour>
    </TTGlyph>
    <TTGlyph name="glyph00020" xMin="60" yMin="0" xMax="919" yMax="1482">
      <contour>
        <pt x="735" y="0" on="1"/>
        <pt x="735" y="642" on="1"/>
        <pt x="60" y="1369" on="1"/>
        <pt x="179" y="1482" on="1"/>
        <pt x="735" y="883" on="1"/>
        <pt x="735" y="1462" on="1"/>
        <pt x="919" y="1462" on="1"/>
        <pt x="919" y="0" on="1"/>
      </contour>
    </TTGlyph>
    <TTGlyph name="glyph00021" xMin="100" yMin="-20" xMax="1093" yMax="1483">
      <contour>
        <pt x="765" y="774" on="1"/>
        <pt x="942" y="688" on="0"/>
        <pt x="1093" y="499" on="0"/>
        <pt x="1093" y="379" on="1"/>
        <pt x="1093" y="200" on="0"/>
        <pt x="827" y="-20" on="0"/>
        <pt x="602" y="-20" on="1"/>
        <pt x="365" y="-20" on="0"/>
        <pt x="100" y="187" on="0"/>
        <pt x="100" y="373" on="1"/>
        <pt x="100" y="622" on="0"/>
        <pt x="405" y="764" on="1"/>
        <pt x="269" y="842" on="0"/>
        <pt x="148" y="1021" on="0"/>
        <pt x="148" y="1135" on="1"/>
        <pt x="148" y="1292" on="0"/>
        <pt x="396" y="1483" on="0"/>
        <pt x="596" y="1483" on="1"/>
        <pt x="798" y="1483" on="0"/>
        <pt x="1044" y="1295" on="0"/>
        <pt x="1044" y="1133" on="1"/>
        <pt x="1044" y="1023" on="0"/>
        <pt x="911" y="849" on="0"/>
      </contour>
      <contour>
        <pt x="565" y="685" on="1"/>
        <pt x="423" y="625" on="0"/>
        <pt x="290" y="477" on="0"/>
        <pt x="290" y="371" on="1"/>
        <pt x="290" y="264" on="0"/>
        <pt x="440" y="142" on="0"/>
        <pt x="598" y="142" on="1"/>
        <pt x="747" y="142" on="0"/>
        <pt x="903" y="264" on="0"/>
        <pt x="903" y="377" on="1"/>
        <pt x="903" y="475" on="0"/>
        <pt x="744" y="620" on="0"/>
      </contour>
      <contour>
        <pt x="604" y="847" on="1"/>
        <pt x="854" y="951" on="0"/>
        <pt x="854" y="1120" on="1"/>
        <pt x="854" y="1219" on="0"/>
        <pt x="716" y="1321" on="0"/>
        <pt x="594" y="1321" on="1"/>
        <pt x="475" y="1321" on="0"/>
        <pt x="338" y="1218" on="0"/>
        <pt x="338" y="1120" on="1"/>
        <pt x="338" y="1062" on="0"/>
        <pt x="391" y="971" on="0"/>
        <pt x="492" y="895" on="0"/>
      </contour>
    </TTGlyph>
    <TTGlyph name="glyph00022" xMin="80" yMin="0" xMax="1174" yMax="1462">
      <contour>
        <pt x="1174" y="666" on="1"/>
        <pt x="719" y="666" on="1"/>
        <pt x="719" y="0" on="1"/>
        <pt x="535" y="0" on="1"/>
        <pt x="535" y="666" on="1"/>
        <pt x="80" y="666" on="1"/>
        <pt x="80" y="822" on="1"/>
        <pt x="535" y="822" on="1"/>
        <pt x="535" y="1462" on="1"/>
        <pt x="719" y="1462" on="1"/>
        <pt x="719" y="822" on="1"/>
        <pt x="1174" y="822" on="1"/>
      </contour>
    </TTGlyph>
    <TTGlyph name="glyph00023" xMin="80" yMin="0" xMax="1174" yMax="1462">
      <contour>
        <pt x="1174" y="666" on="1"/>
        <pt x="719" y="666" on="1"/>
        <pt x="719" y="0" on="1"/>
        <pt x="535" y="0" on="1"/>
        <pt x="535" y="666" on="1"/>
        <pt x="80" y="666" on="1"/>
        <pt x="80" y="822" on="1"/>
        <pt x="535" y="822" on="1"/>
        <pt x="535" y="1304" on="1"/>
        <pt x="80" y="1304" on="1"/>
        <pt x="80" y="1462" on="1"/>
        <pt x="1174" y="1462" on="1"/>
        <pt x="1174" y="1304" on="1"/>
        <pt x="719" y="1304" on="1"/>
        <pt x="719" y="822" on="1"/>
        <pt x="1174" y="822" on="1"/>
      </contour>
    </TTGlyph>
    <TTGlyph name="glyph00024" xMin="80" yMin="0" xMax="1174" yMax="1462">
      <contour>
        <pt x="1174" y="666" on="1"/>
        <pt x="719" y="666" on="1"/>
        <pt x="719" y="158" on="1"/>
        <pt x="1174" y="158" on="1"/>
        <pt x="1174" y="0" on="1"/>
        <pt x="80" y="0" on="1"/>
        <pt x="80" y="158" on="1"/>
        <pt x="535" y="158" on="1"/>
        <pt x="535" y="666" on="1"/>
        <pt x="80" y="666" on="1"/>
        <pt x="80" y="822" on="1"/>
        <pt x="535" y="822" on="1"/>
        <pt x="535" y="1304" on="1"/>
        <pt x="80" y="1304" on="1"/>
        <pt x="80" y="1462" on="1"/>
        <pt x="1174" y="1462" on="1"/>
        <pt x="1174" y="1304" on="1"/>
        <pt x="719" y="1304" on="1"/>
        <pt x="719" y="822" on="1"/>
        <pt x="1174" y="822" on="1"/>
      </contour>
    </TTGlyph>
    <TTGlyph name="glyph00025" xMin="30" yMin="0" xMax="1883" yMax="1462">
      <contour>
        <pt x="1883" y="0" on="1"/>
        <pt x="1688" y="0" on="1"/>
        <pt x="1465" y="886" on="1"/>
        <pt x="1410" y="1098" on="0"/>
        <pt x="1394" y="1236" on="1"/>
        <pt x="1366" y="1057" on="0"/>
        <pt x="1314" y="884" on="1"/>
        <pt x="1049" y="0" on="1"/>
        <pt x="851" y="0" on="1"/>
        <pt x="597" y="877" on="1"/>
        <pt x="541" y="1072" on="0"/>
        <pt x="519" y="1236" on="1"/>
        <pt x="497" y="1080" on="0"/>
        <pt x="449" y="888" on="1"/>
        <pt x="225" y="0" on="1"/>
        <pt x="30" y="0" on="1"/>
        <pt x="417" y="1462" on="1"/>
        <pt x="608" y="1462" on="1"/>
        <pt x="879" y="516" on="1"/>
        <pt x="937" y="308" on="0"/>
        <pt x="949" y="221" on="1"/>
        <pt x="960" y="296" on="0"/>
        <pt x="1023" y="510" on="1"/>
        <pt x="1303" y="1462" on="1"/>
        <pt x="1494" y="1462" on="1"/>
      </contour>
    </TTGlyph>
    <TTGlyph name="glyph00026" xMin="40" yMin="0" xMax="1339" yMax="1462">
      <contour>
        <pt x="781" y="1462" on="1"/>
        <pt x="781" y="832" on="1"/>
        <pt x="847" y="955" on="0"/>
        <pt x="919" y="1075" on="1"/>
        <pt x="1151" y="1462" on="1"/>
        <pt x="1339" y="1462" on="1"/>
        <pt x="781" y="557" on="1"/>
        <pt x="781" y="0" on="1"/>
        <pt x="597" y="0" on="1"/>
        <pt x="597" y="557" on="1"/>
        <pt x="40" y="1462" on="1"/>
        <pt x="228" y="1462" on="1"/>
        <pt x="474" y="1053" on="1"/>
        <pt x="597" y="836" on="1"/>
        <pt x="597" y="1462" on="1"/>
      </contour>
    </TTGlyph>
    <TTGlyph name="glyph00027" xMin="60" yMin="0" xMax="1638" yMax="1482">
      <contour>
        <pt x="941" y="1201" on="1"/>
        <pt x="941" y="0" on="1"/>
        <pt x="757" y="0" on="1"/>
        <pt x="757" y="1201" on="1"/>
        <pt x="551" y="940" on="1"/>
        <pt x="413" y="940" on="1"/>
        <pt x="60" y="1382" on="1"/>
        <pt x="187" y="1482" on="1"/>
        <pt x="481" y="1117" on="1"/>
        <pt x="757" y="1462" on="1"/>
        <pt x="941" y="1462" on="1"/>
        <pt x="1217" y="1117" on="1"/>
        <pt x="1511" y="1482" on="1"/>
        <pt x="1638" y="1382" on="1"/>
        <pt x="1285" y="940" on="1"/>
        <pt x="1147" y="940" on="1"/>
      </contour>
    </TTGlyph>
    <TTGlyph name="glyph00028" xMin="80" yMin="-20" xMax="1207" yMax="1482">
      <contour>
        <pt x="80" y="651" on="1"/>
        <pt x="157" y="735" on="0"/>
        <pt x="364" y="834" on="0"/>
        <pt x="476" y="834" on="1"/>
        <pt x="567" y="834" on="0"/>
        <pt x="742" y="778" on="0"/>
        <pt x="808" y="731" on="1"/>
        <pt x="907" y="807" on="0"/>
        <pt x="975" y="890" on="0"/>
        <pt x="1013" y="990" on="0"/>
        <pt x="1013" y="1057" on="1"/>
        <pt x="1013" y="1135" on="0"/>
        <pt x="822" y="1289" on="0"/>
        <pt x="667" y="1337" on="1"/>
        <pt x="740" y="1482" on="1"/>
        <pt x="960" y="1413" on="0"/>
        <pt x="1207" y="1193" on="0"/>
        <pt x="1207" y="1065" on="1"/>
        <pt x="1207" y="950" on="0"/>
        <pt x="1109" y="765" on="0"/>
        <pt x="1014" y="690" on="1"/>
        <pt x="905" y="603" on="0"/>
        <pt x="821" y="483" on="0"/>
        <pt x="821" y="411" on="1"/>
        <pt x="821" y="324" on="0"/>
        <pt x="1018" y="166" on="0"/>
        <pt x="1167" y="125" on="1"/>
        <pt x="1094" y="-20" on="1"/>
        <pt x="876" y="39" on="0"/>
        <pt x="627" y="266" on="0"/>
        <pt x="627" y="403" on="1"/>
        <pt x="627" y="527" on="0"/>
        <pt x="690" y="614" on="1"/>
        <pt x="603" y="672" on="0"/>
        <pt x="477" y="672" on="1"/>
        <pt x="300" y="672" on="0"/>
        <pt x="176" y="534" on="1"/>
      </contour>
    </TTGlyph>
    <TTGlyph name="glyph00029" xMin="40" yMin="0" xMax="1361" yMax="1462">
      <contour>
        <pt x="773" y="1462" on="1"/>
        <pt x="1361" y="862" on="1"/>
        <pt x="1244" y="748" on="1"/>
        <pt x="793" y="1209" on="1"/>
        <pt x="793" y="0" on="1"/>
        <pt x="609" y="0" on="1"/>
        <pt x="609" y="1211" on="1"/>
        <pt x="157" y="748" on="1"/>
        <pt x="40" y="862" on="1"/>
        <pt x="628" y="1462" on="1"/>
      </contour>
    </TTGlyph>
    <TTGlyph name="glyph00030" xMin="100" yMin="253" xMax="865" yMax="1188">
      <contour>
        <pt x="100" y="825" on="1"/>
        <pt x="681" y="1188" on="1"/>
        <pt x="865" y="1188" on="1"/>
        <pt x="865" y="253" on="1"/>
        <pt x="681" y="253" on="1"/>
        <pt x="100" y="616" on="1"/>
      </contour>
      <contour>
        <pt x="681" y="999" on="1"/>
        <pt x="239" y="720" on="1"/>
        <pt x="681" y="442" on="1"/>
      </contour>
    </TTGlyph>
</ttFont>
